<?xml version="1.0" encoding="UTF-8"?>
<svg xmlns="http://www.w3.org/2000/svg" viewBox="0 0 1254.000000 1254.000000">
<g transform="translate(0.000000,1254.000000) scale(0.100000,-0.100000)"
fill="#111111" stroke="none">
<path d="M5983 10839 c-80 -15 -171 -70 -239 -142 -35 -37 -64 -72 -64 -77 0
-6 -13 -10 -29 -10 -46 0 -266 -46 -378 -80 -295 -87 -526 -217 -722 -405
-256 -246 -396 -505 -452 -836 -11 -68 -22 -125 -23 -127 -2 -1 -72 31 -157
72 -821 395 -1363 462 -1713 212 -395 -282 -555 -886 -432 -1626 69 -411 218
-896 367 -1192 22 -43 39 -85 39 -93 0 -9 -85 -152 -188 -318 -159 -255 -312
-504 -384 -627 -10 -17 -60 -98 -111 -182 -207 -337 -212 -350 -205 -477 5
-93 32 -157 108 -256 972 -1273 1685 -1923 2525 -2300 228 -102 393 -162 650
-235 1026 -291 2374 -291 3400 0 1179 336 1992 984 3175 2535 76 99 103 163
108 256 7 127 2 140 -205 477 -51 84 -101 165 -111 182 -72 123 -225 372 -384
627 -103 166 -188 309 -188 318 0 8 17 50 39 93 149 296 298 781 367 1192 123
740 -37 1344 -432 1626 -350 250 -892 183 -1713 -212 -85 -41 -155 -73 -157
-72 -1 2 -12 59 -23 127 -101 593 -533 1051 -1174 1241 -112 34 -332 80 -378
80 -16 0 -29 4 -29 10 0 5 -29 40 -64 77 -71 75 -159 127 -247 143 -62 12
-516 11 -576 -1z"/>
</g>
<g transform="translate(0.000000,1254.000000) scale(0.100000,-0.100000)"
fill="#F8ECCB" stroke="none">
<path d="M2912 8308 c-16 -20 -40 -117 -46 -189 -13 -135 20 -380 79 -599 38
-138 32 -135 118 -54 152 145 405 339 585 449 51 31 60 40 50 52 -18 22 -181
133 -274 186 -213 123 -473 202 -512 155z"/>
<path d="M9459 8300 c-146 -42 -328 -134 -505 -256 -128 -88 -126 -84 -52
-129 180 -110 433 -304 585 -449 86 -81 80 -84 118 54 59 219 92 464 79 599
-6 72 -30 169 -46 189 -15 18 -102 14 -179 -8z"/>
<path d="M4060 7842 c-506 -275 -919 -641 -1307 -1157 -170 -226 -520 -779
-982 -1547 l-112 -187 172 -218 c1075 -1358 1750 -1894 2769 -2196 533 -158
1004 -220 1675 -220 671 0 1142 62 1675 220 1019 302 1694 838 2769 2196 l172
218 -112 187 c-462 768 -812 1321 -982 1547 -338 451 -714 801 -1132 1057
-110 68 -305 172 -310 166 -2 -2 29 -45 70 -96 93 -116 194 -261 231 -331 59
-115 39 -223 -53 -282 -68 -43 -124 -40 -315 16 -84 25 -223 66 -308 91 -520
153 -997 238 -1491 266 -554 30 -1231 -63 -1919 -266 -85 -25 -224 -66 -308
-91 -191 -56 -247 -59 -315 -16 -92 59 -112 167 -53 282 36 68 140 218 225
324 87 108 85 105 75 105 -5 0 -65 -31 -134 -68z m693 -1343 c301 -45 382 -94
805 -485 287 -266 331 -284 717 -284 386 0 430 18 717 284 306 283 394 353
513 407 275 124 758 120 1130 -11 284 -101 408 -206 816 -691 35 -42 143 -170
240 -285 222 -265 529 -643 529 -652 0 -21 -643 -686 -830 -859 -128 -119
-157 -140 -245 -184 -313 -153 -806 -190 -1108 -82 -230 81 -363 188 -770 615
-204 215 -280 279 -402 338 -326 159 -854 159 -1180 0 -122 -59 -198 -123
-402 -338 -407 -427 -540 -534 -770 -615 -238 -86 -602 -82 -922 9 -171 48
-269 107 -431 257 -187 173 -830 838 -830 859 0 9 307 387 529 652 97 115 205
243 240 285 135 161 341 389 407 451 179 168 431 276 759 325 112 16 392 19
488 4z m1740 -2203 c172 -28 253 -77 277 -168 38 -141 -110 -347 -335 -464
-55 -29 -55 -29 -55 -97 0 -67 1 -69 45 -116 71 -76 147 -106 265 -106 125 0
196 31 305 135 66 63 79 71 103 65 37 -9 112 -84 112 -111 0 -46 -126 -173
-238 -241 -185 -111 -436 -101 -622 25 -36 25 -69 45 -75 45 -5 0 -39 -20 -75
-45 -186 -126 -437 -136 -622 -25 -112 68 -238 195 -238 241 0 27 75 102 112
111 24 6 37 -2 103 -65 109 -104 180 -135 305 -135 118 0 194 30 265 106 44
47 45 49 45 116 0 68 0 68 -55 97 -174 91 -321 256 -341 381 -14 95 48 187
147 220 130 44 403 58 572 31z"/>
<path d="M4475 5600 c-181 -39 -329 -165 -380 -325 -26 -81 -25 -218 2 -301
109 -334 538 -441 794 -198 222 213 187 588 -70 754 -96 61 -247 92 -346 70z
m162 -215 c102 -30 181 -128 190 -237 9 -90 -11 -143 -77 -210 -108 -108 -258
-117 -368 -22 -122 104 -133 277 -24 394 74 81 171 107 279 75z"/>
<path d="M7905 5600 c-238 -52 -395 -243 -395 -479 0 -119 61 -260 149 -345
215 -204 567 -168 733 77 213 313 5 729 -377 752 -38 2 -88 0 -110 -5z m176
-216 c113 -33 200 -166 186 -285 -16 -136 -140 -249 -272 -249 -108 0 -237 94
-264 193 -30 105 2 213 85 286 76 67 163 85 265 55z"/>
</g>
<g transform="translate(0.000000,1254.000000) scale(0.100000,-0.100000)"
fill="#F5BC1B" stroke="none">
<path d="M6015 10434 c-22 -23 -25 -36 -25 -99 0 -72 0 -72 -121 -84 -681 -68
-1130 -325 -1315 -750 -56 -129 -73 -216 -84 -416 -31 -577 -50 -978 -46 -982
2 -3 41 12 86 32 454 199 990 319 1586 355 589 36 1384 -109 1944 -355 45 -20
84 -35 86 -32 4 4 -15 405 -46 982 -11 200 -28 287 -84 416 -185 425 -634 682
-1315 750 -121 12 -121 12 -121 84 0 63 -3 76 -25 99 -24 26 -24 26 -260 26
-236 0 -236 0 -260 -26z m379 -600 c3 -9 6 -36 6 -60 0 -44 0 -44 239 -44 209
0 240 -2 245 -16 3 -9 6 -87 6 -174 0 -182 0 -183 -82 -179 -53 3 -53 3 -60
-45 -12 -88 -1 -85 -245 -60 -63 7 -63 7 -63 -23 0 -30 0 -30 217 -47 119 -9
220 -19 225 -22 15 -9 10 -194 -6 -200 -13 -5 -315 19 -398 32 -38 6 -38 6
-38 -101 0 -164 -26 -195 -165 -195 -139 0 -165 31 -165 195 0 107 0 107 -37
101 -84 -13 -386 -37 -399 -32 -16 6 -21 191 -6 200 5 3 106 13 225 22 217 17
217 17 217 47 0 30 0 30 -62 23 -245 -25 -234 -28 -246 60 -7 48 -7 48 -60 45
-82 -4 -82 -3 -82 179 0 87 3 165 6 174 5 14 36 16 245 16 239 0 239 0 239 44
0 77 -2 76 125 76 94 0 114 -3 119 -16z"/>
<path d="M5880 9490 c0 -27 3 -50 8 -50 4 0 93 9 197 21 191 20 191 20 379 0
104 -12 193 -21 197 -21 5 0 9 23 9 50 0 50 0 50 -395 50 -395 0 -395 0 -395
-50z"/>
<path d="M2555 9197 c-214 -55 -349 -246 -415 -585 -54 -277 -25 -635 85
-1080 71 -288 219 -723 244 -722 3 1 29 31 56 68 28 36 89 113 138 170 48 57
87 108 87 113 0 5 -11 39 -26 76 -74 199 -145 511 -165 728 -31 348 26 598
155 679 194 122 758 -91 1240 -468 70 -54 70 -54 131 -24 62 31 62 31 69 182
3 83 9 190 12 237 7 87 7 87 -82 140 -330 197 -761 381 -1079 460 -142 36
-363 48 -450 26z"/>
<path d="M9679 9199 c-292 -43 -829 -259 -1213 -488 -89 -53 -89 -53 -82 -140
3 -47 9 -154 12 -237 7 -151 7 -151 69 -182 61 -30 61 -30 131 24 482 377
1046 590 1240 468 129 -81 186 -331 155 -679 -20 -217 -91 -529 -165 -728 -15
-37 -26 -71 -26 -76 0 -5 39 -56 88 -113 48 -57 110 -134 137 -170 28 -37 53
-67 56 -68 25 -1 173 434 244 722 110 445 139 803 85 1080 -67 345 -210 541
-428 587 -60 12 -219 13 -303 0z"/>
</g>
<rect x="555" y="258" width="144" height="136" fill="#F5BC1B"/>
<path transform="matrix(0.12271,0,0,-0.12271,565.52099,373.18299)" fill="#111111" d="M363 350 150 330C118 327 79 325 55 325C50 325 44 325 31 326L45 171C80 180 108 184 163 189L363 208V48C363 -58 406 -80 613 -80C808 -80 856 -73 898 -40C939 -7 953 40 959 161C903 171 864 183 808 208C806 124 801 92 787 81C774 68 737 63 662 63C611 63 564 65 549 67C522 72 518 76 518 100V222L853 254C887 257 929 260 951 260C954 260 961 260 971 259L957 414C929 407 885 400 841 396L518 365V437C622 456 704 476 821 509H951C947 536 946 562 946 592V701C946 738 947 758 950 780C918 777 886 776 830 776H573V793C573 815 574 829 577 849H409C412 828 414 815 414 793V776H171C116 776 83 777 51 780C54 757 55 735 55 701V593C55 556 54 536 50 509H111C132 472 146 439 161 390C227 396 227 396 363 415ZM799 538 710 632C583 582 417 550 203 533V638H799Z"/>
</svg>
