<?xml version="1.0" encoding="UTF-8"?>
<svg xmlns="http://www.w3.org/2000/svg" viewBox="0 0 1254.000000 1254.000000">
<g transform="translate(0.000000,1254.000000) scale(0.100000,-0.100000)"
fill="#111111" stroke="none">
<path d="M5940 11471 c-54 -17 -108 -51 -143 -90 -34 -38 -43 -42 -139 -61
-454 -93 -827 -344 -1012 -681 -60 -109 -106 -268 -106 -365 0 -44 -20 -60
-45 -35 -18 17 -338 163 -480 218 -382 149 -610 175 -821 94 -435 -169 -598
-767 -414 -1521 58 -235 148 -503 227 -672 l46 -98 -118 -177 c-123 -187 -236
-365 -478 -753 -153 -247 -175 -296 -161 -374 15 -93 6 -81 433 -526 119 -124
283 -296 365 -383 223 -234 487 -470 679 -604 42 -30 77 -61 77 -68 0 -7 -14
-28 -31 -46 -17 -18 -39 -50 -50 -71 -13 -26 -41 -52 -92 -85 -99 -64 -306
-273 -411 -415 -256 -347 -446 -769 -446 -993 0 -46 -5 -64 -30 -101 -42 -61
-106 -197 -126 -269 -26 -90 -33 -701 -10 -834 52 -298 243 -532 517 -632 119
-43 207 -60 357 -66 l132 -6 0 -173 c0 -150 3 -181 20 -228 27 -72 88 -139
158 -173 57 -28 57 -28 2367 -28 2310 0 2310 0 2367 28 70 34 131 101 158 173
17 47 20 78 20 228 l0 173 138 6 c75 4 155 11 177 17 28 7 62 6 115 -2 41 -7
161 -12 265 -12 218 0 354 23 567 94 902 301 1714 1273 2057 2463 95 326 137
616 128 880 -12 357 -133 640 -369 864 -495 467 -1195 398 -1697 -169 -196
-221 -265 -337 -569 -958 -152 -310 -245 -470 -274 -470 -10 0 -24 12 -32 28
-76 146 -384 485 -523 575 -51 33 -79 59 -92 85 -11 21 -33 53 -50 71 -38 41
-39 52 -2 74 62 36 201 144 326 253 281 242 1149 1137 1190 1226 28 60 32 140
11 199 -11 31 -177 304 -439 724 -28 44 -108 162 -179 261 -70 100 -128 191
-128 203 0 12 13 47 29 79 36 73 119 293 165 442 184 597 187 1091 8 1435 -65
124 -194 256 -302 309 -218 106 -463 84 -878 -78 -130 -51 -415 -180 -474
-214 -15 -9 -30 -14 -32 -11 -3 3 -10 47 -16 99 -29 237 -141 447 -334 627
-215 200 -507 337 -816 383 -66 10 -80 15 -115 49 -86 83 -98 86 -385 88 -140
1 -266 -2 -280 -6z"/>
</g>
<g transform="translate(0.000000,1254.000000) scale(0.100000,-0.100000)"
fill="#F8ECCB" stroke="none">
<path d="M3593 9619 c-50 -61 -51 -301 -2 -509 22 -96 58 -210 66 -210 3 0 48
39 102 86 105 94 325 263 409 314 28 17 52 36 52 40 0 10 -162 118 -265 177
-144 83 -334 136 -362 102z"/>
<path d="M8699 9620 c-60 -15 -181 -66 -249 -105 -102 -59 -260 -165 -260
-175 0 -4 24 -23 53 -40 83 -51 303 -220 408 -314 54 -47 99 -86 102 -86 3 0
15 28 26 63 78 237 100 527 48 636 -14 29 -62 37 -128 21z"/>
<path d="M4514 9253 c-429 -220 -753 -504 -1101 -968 -105 -139 -418 -605
-568 -845 -217 -347 -275 -441 -275 -448 1 -19 1144 -1157 1238 -1231 258
-203 537 -357 747 -412 66 -18 150 -19 1650 -19 1500 0 1584 1 1650 19 210 55
489 209 747 412 94 74 1237 1212 1238 1231 0 7 -58 101 -275 448 -150 240
-463 706 -568 845 -269 358 -494 581 -792 784 -148 100 -405 244 -405 226 0
-3 31 -41 69 -85 94 -109 188 -252 196 -299 13 -81 -47 -151 -130 -151 -22 0
-94 16 -160 36 -694 205 -1311 303 -1741 275 -384 -25 -892 -125 -1399 -275
-66 -20 -138 -36 -160 -36 -83 0 -143 70 -130 151 8 47 102 190 197 300 38 44
68 82 66 84 -2 3 -44 -16 -94 -42z m556 -1049 c175 -33 250 -75 439 -245 342
-309 350 -314 491 -329 202 -21 471 -6 545 30 39 19 142 105 351 294 181 163
241 201 379 236 302 77 718 17 957 -139 100 -65 204 -177 788 -851 102 -117
200 -231 219 -252 33 -39 33 -39 -206 -281 -131 -133 -284 -289 -338 -345
-119 -123 -210 -194 -285 -223 -214 -81 -606 -97 -826 -33 -166 48 -238 101
-590 437 -262 250 -321 287 -530 333 -111 24 -407 24 -518 0 -209 -46 -268
-83 -530 -333 -352 -336 -424 -389 -590 -437 -220 -64 -612 -48 -826 33 -75
29 -166 100 -285 223 -54 56 -207 212 -338 345 -239 242 -239 242 -206 281 19
21 117 135 219 252 584 674 688 786 788 851 219 143 601 209 892 153z m1354
-1689 c121 -21 172 -69 170 -158 -1 -98 -89 -211 -227 -291 -67 -39 -67 -39
-67 -97 0 -53 3 -61 33 -92 52 -51 101 -71 190 -75 72 -4 83 -2 144 28 36 18
86 52 111 76 52 50 62 52 103 23 59 -42 58 -52 -23 -135 -164 -169 -338 -208
-529 -116 -46 22 -93 46 -104 55 -18 14 -22 13 -47 -5 -69 -49 -180 -90 -258
-95 -140 -10 -249 38 -368 161 -81 83 -82 93 -23 135 41 29 51 27 103 -23 25
-24 75 -58 111 -76 113 -55 251 -36 334 47 30 31 33 39 33 92 0 58 0 58 -67
97 -220 128 -294 318 -162 417 59 43 376 62 543 32z"/>
<path d="M4801 7528 c-297 -47 -410 -427 -189 -634 79 -74 145 -99 258 -99
113 0 179 25 258 99 187 175 142 484 -86 600 -45 23 -71 29 -162 40 -14 2 -49
-1 -79 -6z m152 -182 c159 -68 156 -303 -5 -371 -93 -38 -201 -4 -253 80 -62
100 -30 225 70 282 47 27 137 31 188 9z"/>
<path d="M7484 7529 c-305 -38 -427 -424 -202 -635 79 -74 145 -99 258 -99 82
0 103 4 152 27 281 132 300 523 31 665 -51 28 -77 35 -158 47 -11 2 -48 -1
-81 -5z m161 -192 c100 -57 132 -182 70 -282 -106 -171 -375 -97 -375 104 0
63 13 97 53 140 43 45 81 60 152 60 44 1 71 -5 100 -22z"/>
<path d="M4016 5132 c-12 -19 -86 -682 -86 -769 0 -23 0 -23 845 -23 l845 0 0
400 0 400 -799 0 c-440 0 -802 -4 -805 -8z"/>
<path d="M6790 4740 l0 -400 845 0 c845 0 845 0 845 23 0 87 -74 750 -86 769
-3 4 -365 8 -805 8 l-799 0 0 -400z"/>
<path d="M5660 4245 l0 -65 545 0 545 0 0 65 0 65 -545 0 -545 0 0 -65z"/>
<path d="M3535 3804 c-323 -50 -535 -216 -600 -469 -22 -86 -22 -684 0 -770
40 -158 142 -286 277 -350 114 -54 176 -67 346 -72 152 -5 152 -5 152 54 0 60
0 60 -142 65 -286 11 -444 106 -510 307 -30 90 -39 589 -14 711 53 254 229
385 578 432 88 12 88 12 88 60 0 48 0 48 -42 47 -24 -1 -83 -7 -133 -15z"/>
<path d="M8700 3772 c0 -48 0 -48 88 -60 349 -47 525 -178 578 -432 25 -122
16 -621 -14 -711 -66 -201 -224 -296 -509 -307 -143 -5 -143 -5 -143 -65 0
-59 0 -59 153 -54 169 5 231 18 345 72 135 64 237 192 277 350 22 86 22 684 0
770 -53 207 -225 373 -455 439 -62 18 -238 46 -287 46 -33 0 -33 0 -33 -48z"/>
</g>
<g transform="translate(0.000000,1254.000000) scale(0.100000,-0.100000)"
fill="#F5BC1B" stroke="none">
<path d="M6003 11188 c-17 -8 -23 -21 -25 -56 -3 -46 -3 -46 -143 -64 -358
-47 -601 -153 -795 -347 -158 -158 -212 -285 -229 -542 -27 -389 -40 -694 -31
-703 7 -7 21 -6 43 2 434 171 949 272 1382 272 433 0 948 -101 1382 -272 22
-8 36 -9 43 -2 9 9 -4 314 -31 703 -17 257 -71 384 -229 542 -194 194 -437
300 -795 347 -140 18 -140 18 -143 63 -2 38 -7 48 -28 58 -32 14 -370 14 -401
-1z m305 -455 c3 -43 3 -43 188 -43 l184 0 0 -135 c0 -135 0 -135 -49 -135
-48 0 -48 0 -55 -51 -7 -51 -7 -51 -54 -45 -178 20 -182 20 -182 -12 0 -29 0
-29 103 -36 254 -16 237 -9 237 -92 0 -57 -3 -74 -14 -74 -13 0 -158 13 -273
25 -53 5 -53 5 -53 -81 0 -81 -1 -87 -29 -115 -27 -27 -35 -29 -106 -29 -71 0
-79 2 -106 29 -28 28 -29 34 -29 115 0 86 0 86 -52 81 -116 -12 -261 -25 -274
-25 -11 0 -14 17 -14 74 0 83 -17 76 238 92 102 7 102 7 102 36 0 32 -4 32
-182 12 -47 -6 -47 -6 -54 45 -7 51 -7 51 -55 51 -49 0 -49 0 -49 135 l0 135
185 0 c185 0 185 0 185 38 0 21 3 42 7 46 4 4 50 5 103 4 95 -3 95 -3 98 -45z"/>
<path d="M5890 10510 c0 -47 -6 -47 190 -26 105 11 146 11 255 0 193 -20 185
-22 185 26 0 40 0 40 -315 40 -315 0 -315 0 -315 -40z"/>
<path d="M3303 10296 c-133 -42 -233 -169 -282 -361 -86 -331 -25 -791 175
-1325 30 -79 58 -148 62 -152 6 -6 112 117 205 238 18 23 17 26 -27 163 -153
475 -145 944 17 1027 49 26 179 14 297 -25 188 -64 496 -232 675 -369 39 -30
39 -30 86 -7 46 24 46 24 53 122 20 298 29 262 -76 320 -345 191 -634 312
-864 363 -103 23 -257 25 -321 6z"/>
<path d="M8782 10290 c-233 -54 -520 -175 -860 -363 -105 -58 -96 -22 -76
-320 7 -98 7 -98 53 -122 47 -23 47 -23 86 7 179 137 487 305 675 369 118 39
248 51 297 25 162 -83 170 -552 17 -1027 -44 -137 -45 -140 -27 -163 93 -121
199 -244 205 -238 13 13 115 294 157 432 202 673 138 1242 -157 1387 -76 37
-241 43 -370 13z"/>
<path d="M10970 6191 c-314 -44 -634 -303 -864 -696 -92 -158 -112 -197 -236
-461 -160 -342 -282 -562 -392 -711 -38 -53 -38 -53 1 -145 21 -51 40 -98 42
-105 2 -6 54 -44 114 -84 305 -200 604 -499 814 -813 129 -192 247 -407 237
-432 -3 -7 -49 -50 -103 -94 -249 -206 -585 -389 -875 -474 -126 -38 -59 -31
84 8 589 162 1062 531 1486 1161 524 781 782 1832 569 2325 -88 204 -225 354
-404 444 -128 64 -331 97 -473 77z m256 -136 c278 -53 487 -277 560 -600 19
-82 27 -426 10 -442 -4 -4 -39 29 -79 72 -328 361 -783 649 -1149 724 -32 7
-58 16 -58 21 0 14 132 106 205 142 177 88 344 115 511 83z m-866 -882 c449
-166 909 -529 1214 -955 48 -68 48 -68 7 -170 -103 -265 -320 -687 -352 -688
-4 0 -30 38 -58 85 -313 510 -874 990 -1385 1184 -25 10 -25 10 10 73 20 35
92 174 160 310 l123 247 93 -26 c51 -13 136 -41 188 -60z"/>
<path d="M3689 4827 c-197 -196 -357 -427 -480 -695 -36 -77 -109 -264 -109
-277 0 -3 20 8 45 25 113 78 298 142 468 163 97 11 97 11 97 87 0 115 18 354
41 563 11 103 19 192 17 198 -2 6 -37 -23 -79 -64z"/>
<path d="M8640 4884 c0 -11 9 -98 20 -194 21 -192 40 -455 40 -565 0 -71 0
-71 98 -82 170 -21 353 -85 468 -164 54 -37 55 -44 -9 121 -104 269 -266 534
-454 741 -108 119 -163 167 -163 143z"/>
<path d="M3925 3935 c0 -215 0 -215 55 -215 105 0 186 -44 216 -117 24 -56 18
-204 -8 -243 -47 -69 -64 -74 -230 -80 -129 -4 -152 -7 -162 -22 -8 -13 -8
-23 0 -35 10 -15 32 -19 160 -23 159 -5 175 -10 218 -60 67 -80 61 -269 -10
-332 -44 -38 -89 -48 -229 -48 -116 0 -137 -2 -142 -16 -15 -41 7 -49 153 -54
204 -7 234 -35 234 -213 0 -81 -3 -99 -23 -128 -35 -52 -90 -79 -164 -79 l-63
0 1 -287 c0 -323 7 -430 29 -443 20 -13 4470 -13 4490 0 22 13 29 120 29 443
l1 287 -62 0 c-75 0 -130 27 -165 79 -20 29 -23 47 -23 128 0 178 30 206 234
213 146 5 168 13 153 54 -5 14 -26 16 -142 16 -140 0 -185 10 -229 48 -71 63
-77 252 -10 332 43 50 59 55 218 60 128 4 150 8 160 23 8 12 8 22 0 35 -10 15
-33 18 -162 22 -166 6 -183 11 -229 80 -27 39 -33 187 -9 243 30 73 111 117
216 117 55 0 55 0 55 215 l0 215 -847 0 -848 0 -2 -502 c-3 -440 -5 -503 -18
-501 -8 0 -139 36 -290 78 l-275 78 -275 -78 c-151 -42 -282 -78 -290 -78 -13
-2 -15 61 -18 501 l-2 502 -848 0 -847 0 0 -215z m3515 -1410 c5 -70 5 -70 85
-70 80 0 80 0 83 73 3 73 3 73 70 70 67 -3 67 -3 72 -73 5 -70 5 -70 73 -73
67 -3 67 -3 67 -72 0 -70 0 -70 -70 -70 -70 0 -70 0 -70 -85 0 -85 0 -85 70
-85 70 0 70 0 70 -70 0 -69 0 -69 -67 -72 -68 -3 -68 -3 -73 -68 -5 -65 -5
-65 -72 -68 -67 -3 -67 -3 -70 65 -3 68 -3 68 -83 68 -80 0 -80 0 -83 -67 -3
-68 -3 -68 -72 -68 -69 0 -69 0 -72 68 -3 67 -3 67 -70 70 -68 3 -68 3 -68 72
0 69 0 69 68 72 67 3 67 3 67 83 0 80 0 80 -67 83 -68 3 -68 3 -68 72 0 69 0
69 68 72 67 3 67 3 70 76 3 73 3 73 70 70 67 -3 67 -3 72 -73z"/>
<path d="M7440 2225 c0 -86 0 -86 83 -83 82 3 82 3 82 83 0 80 0 80 -82 83
-83 3 -83 3 -83 -83z"/>
</g>
<rect x="565" y="168" width="110" height="102" fill="#F5BC1B"/>
<path transform="matrix(0.09257,0,0,-0.09257,573.62110,254.59419)" fill="#111111" d="M363 350 150 330C118 327 79 325 55 325C50 325 44 325 31 326L45 171C80 180 108 184 163 189L363 208V48C363 -58 406 -80 613 -80C808 -80 856 -73 898 -40C939 -7 953 40 959 161C903 171 864 183 808 208C806 124 801 92 787 81C774 68 737 63 662 63C611 63 564 65 549 67C522 72 518 76 518 100V222L853 254C887 257 929 260 951 260C954 260 961 260 971 259L957 414C929 407 885 400 841 396L518 365V437C622 456 704 476 821 509H951C947 536 946 562 946 592V701C946 738 947 758 950 780C918 777 886 776 830 776H573V793C573 815 574 829 577 849H409C412 828 414 815 414 793V776H171C116 776 83 777 51 780C54 757 55 735 55 701V593C55 556 54 536 50 509H111C132 472 146 439 161 390C227 396 227 396 363 415ZM799 538 710 632C583 582 417 550 203 533V638H799Z"/>
</svg>
